# xmcd CD database file
#
# Track frame offsets:
#	150
#	36512
#	61924
#	110611
#	151718
#	188186
#	220896
#	254392
#	304113
#
# Disc length: 4531 seconds
#
# Revision: 0
# Processed by: cddbd v1.5.1PL2 Copyright (c) Steve Scherf et al.
# Submitted via: CDex 1.50beta9
#
DISCID=7a11b109
DTITLE=Gil Askey meets Paul Williamson - When I Grow Too Old To Dream
DYEAR=2003
DGENRE=Jazz
TTITLE0=When I Grow Too Old To Dream
TTITLE1=I Got A Right To Sing The Blues
TTITLE2=(Lady Be Good) Hackensack
TTITLE3=I Can't Get Started
TTITLE4=Everyday I Have The Blues
TTITLE5=Maelstrom
TTITLE6=Makin' Whoopee
TTITLE7=Caravan
TTITLE8=Wonderful World
EXTD=YEAR: 2003
EXTT0=
EXTT1=
EXTT2=
EXTT3=
EXTT4=
EXTT5=
EXTT6=
EXTT7=
EXTT8=
PLAYORDER=
